<?xml version="1.0" encoding="utf-8"?>
<!-- Generator: Adobe Illustrator 26.0.3, SVG Export Plug-In . SVG Version: 6.00 Build 0)  -->
<svg version="1.1"
	 id="Layer_1" xmlns:cc="http://web.resource.org/cc/" xmlns:dc="http://purl.org/dc/elements/1.1/" xmlns:inkscape="http://www.inkscape.org/namespaces/inkscape" xmlns:ns1="http://sozi.baierouge.fr" xmlns:rdf="http://www.w3.org/1999/02/22-rdf-syntax-ns#" xmlns:sodipodi="http://sodipodi.sourceforge.net/DTD/sodipodi-0.dtd" xmlns:svg="http://www.w3.org/2000/svg"
	 xmlns="http://www.w3.org/2000/svg" xmlns:xlink="http://www.w3.org/1999/xlink" x="0px" y="0px" viewBox="0 0 60 100"
	 style="enable-background:new 0 0 60 100;" xml:space="preserve">
<style type="text/css">
	.st0{fill:#FFFFFF;stroke:#231F20;stroke-miterlimit:10;}
</style>
<path class="st0" d="M52,38v14c0,9.8-8.2,18-18,18h-8c-9.8,0-18-8.2-18-18V38H0v14c0,14.1,11.9,26,26,26v14H9v8h42v-8H34V78
	c14.1,0,26-11.9,26-26V38H52z"/>
<path class="st0" d="M26,64h8c5.7,0,10.8-4.5,11.8-10H33.9v-4H46v-4H33.9v-4H46v-4H33.9v-4H46v-4H33.9v-4H46v-4H33.9v-4H46v-4H33.9
	v-4h11.9C44.8,4.5,39.7,0,34,0h-8c-6.4,0-12,5.6-12,12v40C14,58.4,19.6,64,26,64z"/>
</svg>
