<?xml version="1.0" encoding="utf-8"?>
<!-- Generator: Adobe Illustrator 26.0.3, SVG Export Plug-In . SVG Version: 6.00 Build 0)  -->
<svg version="1.1"
	 id="svg6" inkscape:version="0.92.2 5c3e80d, 2017-08-06" sodipodi:docname="ic_order_date_asc_black_24px.svg" xmlns:cc="http://creativecommons.org/ns#" xmlns:dc="http://purl.org/dc/elements/1.1/" xmlns:inkscape="http://www.inkscape.org/namespaces/inkscape" xmlns:rdf="http://www.w3.org/1999/02/22-rdf-syntax-ns#" xmlns:sodipodi="http://sodipodi.sourceforge.net/DTD/sodipodi-0.dtd" xmlns:svg="http://www.w3.org/2000/svg"
	 xmlns="http://www.w3.org/2000/svg" xmlns:xlink="http://www.w3.org/1999/xlink" x="0px" y="0px" viewBox="0 0 24 24"
	 style="enable-background:new 0 0 24 24;" xml:space="preserve">
<style type="text/css">
	.st0{fill:none;}
	.st1{fill:#FFFFFF;stroke:#000000;stroke-miterlimit:10;}
</style>
<sodipodi:namedview  bordercolor="#666666" borderopacity="1" gridtolerance="10" guidetolerance="10" id="namedview8" inkscape:current-layer="svg6" inkscape:cx="8.7962603" inkscape:cy="11.219548" inkscape:pageopacity="0" inkscape:pageshadow="2" inkscape:window-height="955" inkscape:window-maximized="1" inkscape:window-width="1920" inkscape:window-x="0" inkscape:window-y="1" inkscape:zoom="22.627417" objecttolerance="10" pagecolor="#ffffff" showgrid="true">
	<inkscape:grid  id="grid3790" type="xygrid"></inkscape:grid>
</sodipodi:namedview>
<path id="path2" class="st0" d="M0,0h24v24H0V0z"/>
<path id="path22" class="st1" d="M6,1v2H5C3.9,3,3,3.9,3,5v14c0,1.1,0.9,2,2,2h14c1.1,0,2-0.9,2-2V5c0-1.1-0.9-2-2-2h-1V1h-2v2H8V1
	H6z M5,8h14v11H5V8z"/>
<path class="st1" d="M15.5,9.4c-0.3,0-0.5,0.1-0.7,0.3l-3.7,4.4l-1.9-2c-0.4-0.4-1-0.4-1.4-0.1c-0.4,0.4-0.4,1.1-0.1,1.5
	c0,0,0,0,0.1,0.1l2.6,2.8c0.4,0.4,1,0.4,1.4,0l0,0l4.4-5.2c0.4-0.4,0.4-1.1,0-1.5C16.1,9.5,15.8,9.4,15.5,9.4
	C15.6,9.4,15.5,9.4,15.5,9.4L15.5,9.4z"/>
</svg>
